{"title":"Breakfast at Tiffany's(1961)MPEG-4[DaScubaDude]","uid":15123407,"size":1147967992,"categoryP":"video","categoryS":"movies","magnet":"?xt=urn:btih:3dd2477d96f79ed3ee6d489538e60999f84d7985&amp;dn=Breakfast+at+Tiffany%27s%281961%29MPEG-4%5BDaScubaDude%5D&amp;tr=udp%3A%2F%2Ftracker.leechers-paradise.org%3A6969&amp;tr=udp%3A%2F%2Fzer0day.ch%3A1337&amp;tr=udp%3A%2F%2Fopen.demonii.com%3A1337&amp;tr=udp%3A%2F%2Ftracker.coppersurfer.tk%3A6969&amp;tr=udp%3A%2F%2Fexodus.desync.com%3A6969","seeders":0,"leechers":1,"uploader":"dascuba","files":1,"time":1467090994,"description":"Breakfast at Tiffany's (1961)\r\nNot Rated | 1h 55min | Comedy, Drama, Romance | 4 November 1961 (Japan)\r\nA young New York socialite becomes interested in a young man who has moved into her apartment building.\r\nDirector: Blake Edwards\r\nWriters: Truman Capote (based on the novel by), George Axelrod (screenplay)\r\nStars: Audrey Hepburn, George Peppard, Patricia Neal |\r\n\r\nGeneral\r\nComplete name                            : Breakfast atTIFANNYS_Title1.mp4\r\nFormat                                   : MPEG-4\r\nFormat profile                           : Base Media\r\nCodec ID                                 : isom (isom/iso2/avc1/mp41)\r\nFile size                                : 1.07 GiB\r\nDuration                                 : 1h 54mn\r\nOverall bit rate mode                    : Variable\r\nOverall bit rate                         : 1 340 Kbps\r\nMovie name                               : TIFANNYS\r\nGenre                                    : Comedy_Drama\r\nWriting application                      : Lavf54.6.100\r\n\r\nVideo\r\nID                                       : 1\r\nFormat                                   : AVC\r\nFormat/Info                              : Advanced Video Codec\r\nFormat profile                           :   \r\nFormat settings, CABAC                   : No\r\nFormat settings, ReFrames                : 6 frames\r\nCodec ID                                 : avc1\r\nCodec ID/Info                            : Advanced Video Coding\r\nDuration                                 : 1h 54mn\r\nBit rate                                 : 1 205 Kbps\r\nWidth                                    : 720 pixels\r\nHeight                                   : 404 pixels\r\nDisplay aspect ratio                     : 16:9\r\nFrame rate mode                          : Constant\r\nFrame rate                               : 29.970 (30000/1001) fps\r\nColor space                              : YUV\r\nChroma subsampling                       : 4:2:0\r\nBit depth                                : 8 bits\r\nScan type                                : Progressive\r\nBits/(Pixel*Frame)                       : 0.138\r\nStream size                              : 985 MiB (90%)\r\n\r\nAudio\r\nID                                       : 2\r\nFormat                                   : AAC\r\nFormat/Info                              : Advanced Audio Codec\r\nFormat profile                           : LC\r\nCodec ID                                 : 40\r\nDuration                                 : 1h 54mn\r\nBit rate mode                            : Variable\r\nBit rate                                 : 128 Kbps\r\nMaximum bit rate                         : 132 Kbps\r\nChannel(s)                               : 2 channels\r\nChannel positions                        : Front: L R\r\nSampling rate                            : 44.1 KHz\r\nFrame rate                               : 43.066 fps (1024 spf)\r\nCompression mode                         : Lossy\r\nStream size                              : 105 MiB (10%)\r\nDefault                                  : Yes\r\nAlternate group                          : 1","torrent":{"xt":"urn:btih:3dd2477d96f79ed3ee6d489538e60999f84d7985","amp;dn":"Breakfast+at+Tiffany%27s%281961%29MPEG-4%5BDaScubaDude%5D","amp;tr":["udp%3A%2F%2Ftracker.leechers-paradise.org%3A6969","udp%3A%2F%2Fzer0day.ch%3A1337","udp%3A%2F%2Fopen.demonii.com%3A1337","udp%3A%2F%2Ftracker.coppersurfer.tk%3A6969","udp%3A%2F%2Fexodus.desync.com%3A6969"],"infoHash":"3dd2477d96f79ed3ee6d489538e60999f84d7985","infoHashBuffer":{"type":"Buffer","data":[61,210,71,125,150,247,158,211,238,109,72,149,56,230,9,153,248,77,121,133]},"announce":[],"urlList":[]}}